<svg xmlns="http://www.w3.org/2000/svg" width="18" height="18" viewBox="0 0 18 18" fill="none">
  <path fill-rule="evenodd" clip-rule="evenodd" d="M12.3788 1.90879C12.8196 1.4679 13.5333 1.4679 13.9742 1.90879L16.6718 4.60643C17.1127 5.04732 17.1127 5.76099 16.6718 6.20187L7.67596 15.1978C7.59335 15.2804 7.48616 15.334 7.37049 15.3505L3.25285 15.9387C3.08459 15.9628 2.91483 15.9062 2.79464 15.786C2.67446 15.6658 2.61787 15.496 2.64191 15.3278L3.23014 11.2101C3.24667 11.0945 3.30026 10.9873 3.38288 10.9047L12.3788 1.90879ZM13.2105 2.67246C13.1914 2.65335 13.1616 2.65335 13.1424 2.67246L4.27383 11.5411L3.81288 14.7678L7.03957 14.3068L15.9082 5.4382C15.9273 5.41908 15.9273 5.38923 15.9082 5.37011L13.2105 2.67246Z" fill="#9FA6B2"/>
  <path fill-rule="evenodd" clip-rule="evenodd" d="M15.3229 3.2568C15.5338 3.46768 15.5338 3.80959 15.3229 4.02047L8.26412 11.0793C8.05324 11.2902 7.71133 11.2902 7.50045 11.0793C7.28956 10.8684 7.28956 10.5265 7.50045 10.3156L14.5593 3.2568C14.7702 3.04591 15.1121 3.04591 15.3229 3.2568Z" fill="#9FA6B2"/>
  <path fill-rule="evenodd" clip-rule="evenodd" d="M3.38302 10.9043C3.5939 10.6934 3.93581 10.6934 4.14669 10.9043L7.6761 14.4337C7.88699 14.6446 7.88699 14.9865 7.6761 15.1973C7.46522 15.4082 7.12331 15.4082 6.91243 15.1973L3.38302 11.6679C3.17213 11.457 3.17213 11.1151 3.38302 10.9043Z" fill="#9FA6B2"/>
</svg>